<?xml version="1.0" encoding="UTF-8"?><svg id="Layer_1" xmlns="http://www.w3.org/2000/svg" viewBox="0 0 14.02 10.08"><defs><style>.cls-1,.cls-2{fill:#f7f8fa;}.cls-2,.cls-3{fill-rule:evenodd;}.cls-3{fill:#a1a1aa;}</style></defs><path class="cls-3" d="M10.34,10.08c2.65-.08,3.67-1.82,3.67-1.82,0-3.86-1.73-7-1.73-7C10.56-.04,8.92,0,8.92,0l-.17,.19c2.04,.62,2.99,1.52,2.99,1.52-1.25-.68-2.47-1.02-3.61-1.15-.86-.1-1.69-.07-2.42,.02l-.2,.02c-.42,.04-1.44,.19-2.72,.76-.44,.2-.71,.35-.71,.35,0,0,1-.95,3.16-1.57L5.1,0S3.46-.04,1.73,1.26c0,0-1.73,3.13-1.73,7,0,0,1.01,1.74,3.66,1.82,0,0,.44-.54,.8-1-1.52-.46-2.1-1.42-2.1-1.42l.34,.2,.05,.04,.05,.03h.01s.05,.03,.05,.03c.3,.17,.6,.3,.88,.41,.49,.19,1.08,.38,1.76,.52,.9,.17,1.96,.23,3.11,.01,.56-.1,1.14-.26,1.74-.52,.42-.16,.89-.38,1.38-.71,0,0-.6,.98-2.17,1.43,.36,.46,.79,.97,.79,.97Z"/><path class="cls-2" d="M4.76,4.48c-.68,0-1.22,.6-1.22,1.33s.55,1.33,1.22,1.33,1.22-.6,1.22-1.33c.01-.73-.54-1.33-1.22-1.33Z"/><ellipse class="cls-1" cx="9.14" cy="5.81" rx="1.22" ry="1.33"/></svg>