<svg width="1381" height="1466" viewBox="0 0 1381 1466" fill="none" xmlns="http://www.w3.org/2000/svg">
<path fill-rule="evenodd" clip-rule="evenodd" d="M690.25 1465.71C634.766 1465.71 580.704 1451.49 530.91 1424.45C419.941 1361.86 271.983 1277.92 159.592 1213.9C61.427 1158.41 0.251953 1054.56 0.251953 943.59V522.478C0.251953 411.509 61.427 307.654 159.592 252.169C270.56 189.572 418.519 105.634 530.91 41.6133C629.075 -13.8711 750.002 -13.8711 849.589 41.6133C960.558 104.211 1108.52 188.149 1220.91 252.169C1269.28 279.2 1307.69 317.613 1334.72 361.715L848.167 641.983C751.425 697.467 691.673 802.745 690.25 910.869V1465.71ZM1378.83 869.611V942.167C1378.83 1053.14 1317.65 1156.99 1219.49 1212.48C1108.52 1275.07 960.558 1359.01 848.167 1423.03C838.208 1428.72 826.827 1434.41 816.868 1438.68V1307.8C816.868 1242.35 853.858 1179.75 909.342 1147.03C1048.76 1065.94 1188.19 987.693 1327.61 906.6C1346.1 896.642 1363.18 883.838 1378.83 869.611ZM1377.4 482.643C1378.82 495.447 1380.25 509.674 1380.25 522.478V597.88C1380.25 680.395 1334.72 757.219 1263.59 798.477C1124.17 879.57 984.744 957.817 845.322 1038.91C835.363 1044.6 826.827 1050.29 818.291 1057.4V910.869C818.291 845.426 855.28 781.405 912.187 748.683L1377.4 482.643Z" fill="white"/>
</svg>
