<svg width="5026" height="1205" viewBox="0 0 5026 1205" fill="none" xmlns="http://www.w3.org/2000/svg">
<path fill-rule="evenodd" clip-rule="evenodd" d="M542.091 1151.73C498.5 1151.73 456.027 1140.55 416.907 1119.31C329.725 1070.14 213.483 1004.19 125.184 953.893C48.0616 910.303 0 828.71 0 741.528V410.685C0 323.503 48.0616 241.91 125.184 198.32C212.365 149.14 328.607 83.1952 416.907 32.8982C494.029 -10.6926 589.035 -10.6926 667.274 32.8982C754.456 82.0775 870.698 148.023 958.997 198.32C997 219.556 1027.18 249.734 1048.41 284.384L666.157 504.573C590.152 548.164 543.208 630.874 542.091 715.821V1151.73ZM1083.06 683.407V740.41C1083.06 827.592 1035 909.185 957.88 952.776C870.698 1001.96 754.456 1067.9 666.157 1118.2C658.333 1122.67 649.391 1127.14 641.567 1130.49V1027.66C641.567 976.248 670.628 927.068 714.218 901.361C823.754 837.651 933.29 776.177 1042.83 712.467C1057.36 704.643 1070.77 694.584 1083.06 683.407ZM1081.95 379.389C1083.06 389.449 1084.18 400.626 1084.18 410.685V469.924C1084.18 534.751 1048.41 595.108 992.529 627.521C882.993 691.231 773.457 752.705 663.921 816.415C656.097 820.886 649.391 825.357 642.685 830.945V715.821C642.685 664.406 671.745 614.109 716.454 588.401L1081.95 379.389Z" fill="black"/>
<path d="M1900.14 965.084V104.785H1790.41V965.084H1900.14ZM2053.66 965.084H2163.38V362.735H2053.66V965.084ZM2322.68 1204.99H2432.4V856.187C2469.75 926.184 2545.63 964.678 2636.68 964.678C2805.93 964.678 2901.65 834.024 2901.65 660.207C2901.65 485.223 2800.1 362.735 2636.68 362.735C2545.63 362.735 2468.59 403.565 2430.07 481.725V362.735H2322.68V1204.99ZM2433.57 664.872C2433.57 545.884 2501.27 463.06 2613.33 463.06C2725.39 463.06 2791.93 547.052 2791.93 664.872C2791.93 781.53 2725.39 865.522 2613.33 865.522C2501.27 865.522 2433.57 781.53 2433.57 664.872ZM2975.9 785.434C2975.9 893.924 3061.1 965.084 3195.33 965.084C3330.74 965.084 3424.12 896.259 3424.12 787.769C3424.12 702.609 3376.26 658.283 3279.38 634.948L3178.99 610.45C3122.96 596.454 3094.95 570.788 3094.95 532.294C3094.95 479.796 3133.47 449.466 3202.34 449.466C3268.87 449.466 3316.48 485.629 3318.82 542.792H3423.87C3421.54 434.302 3330.74 364.309 3205.84 364.309C3079.77 364.309 2991.07 430.8 2991.07 535.792C2991.07 619.785 3038.92 669.948 3140.47 694.442L3240.86 717.777C3300.39 732.94 3319.07 756.271 3319.07 794.769C3319.07 847.263 3274.71 878.761 3197.67 878.761C3125.3 878.761 3080.95 843.765 3080.95 785.434H2975.9ZM3545.8 965.084H3655.52V361.66H3545.8V965.084ZM4043.61 965.793C4134.66 965.793 4211.7 926.132 4249.05 847.973V965.084H4356.45V104.785H4247.88V470.477C4209.36 400.486 4135.82 361.99 4048.28 361.99C3879.02 361.99 3777.47 493.339 3777.47 668.323C3777.47 842.14 3877.85 965.793 4043.61 965.793ZM4065.79 866.638C3953.73 866.638 3888.36 782.646 3888.36 664.825C3888.36 548.168 3953.73 461.147 4065.79 461.147C4177.85 461.147 4246.72 548.168 4246.72 664.825C4246.72 783.813 4177.85 866.638 4065.79 866.638ZM4761.04 965.793C4902.28 965.793 4997.99 896.969 5026 774.479H4923.3C4904.63 839.805 4848.57 874.801 4763.35 874.801C4654.8 874.801 4591.79 808.311 4583.61 688.156L5024.85 686.989V659.446C5024.85 490.294 4918.61 378.305 4756.35 378.305C4590.6 378.305 4477.37 488.674 4477.37 667.156C4477.37 844.475 4592.95 965.793 4761.04 965.793ZM4756.35 470.462C4853.25 470.462 4915.11 533.458 4915.11 627.948H4585.95C4599.94 527.625 4660.64 470.462 4756.35 470.462Z" fill="black"/>
<path d="M1324.95 362.936V455.092H1409V964.531H1518.72V455.092H1654.12V362.936H1518.72V303.093C1518.72 241.265 1537.39 205.102 1608.6 205.102H1657.62V110.611C1635.45 107.111 1610.93 105.945 1589.92 105.945C1486.04 105.945 1409 163.106 1409 303.093V362.936H1324.95Z" fill="black"/>
<path d="M1900.14 965.084V104.785H1790.41V965.084H1900.14ZM2053.66 965.084H2163.38V362.735H2053.66V965.084ZM2322.68 1204.99H2432.4V856.187C2469.75 926.184 2545.63 964.678 2636.68 964.678C2805.93 964.678 2901.65 834.024 2901.65 660.207C2901.65 485.223 2800.1 362.735 2636.68 362.735C2545.63 362.735 2468.59 403.565 2430.07 481.725V362.735H2322.68V1204.99ZM2433.57 664.872C2433.57 545.884 2501.27 463.06 2613.33 463.06C2725.39 463.06 2791.93 547.052 2791.93 664.872C2791.93 781.53 2725.39 865.522 2613.33 865.522C2501.27 865.522 2433.57 781.53 2433.57 664.872ZM2975.9 785.434C2975.9 893.924 3061.1 965.084 3195.33 965.084C3330.74 965.084 3424.12 896.259 3424.12 787.769C3424.12 702.609 3376.26 658.283 3279.38 634.948L3178.99 610.45C3122.96 596.454 3094.95 570.788 3094.95 532.294C3094.95 479.796 3133.47 449.466 3202.34 449.466C3268.87 449.466 3316.48 485.629 3318.82 542.792H3423.87C3421.54 434.302 3330.74 364.309 3205.84 364.309C3079.77 364.309 2991.07 430.8 2991.07 535.792C2991.07 619.785 3038.92 669.948 3140.47 694.442L3240.86 717.777C3300.39 732.94 3319.07 756.271 3319.07 794.769C3319.07 847.263 3274.71 878.761 3197.67 878.761C3125.3 878.761 3080.95 843.765 3080.95 785.434H2975.9ZM3545.8 965.084H3655.52V361.66H3545.8V965.084ZM4043.61 965.793C4134.66 965.793 4211.7 926.132 4249.05 847.973V965.084H4356.45V104.785H4247.88V470.477C4209.36 400.486 4135.82 361.99 4048.28 361.99C3879.02 361.99 3777.47 493.339 3777.47 668.323C3777.47 842.14 3877.85 965.793 4043.61 965.793ZM4065.79 866.638C3953.73 866.638 3888.36 782.646 3888.36 664.825C3888.36 548.168 3953.73 461.147 4065.79 461.147C4177.85 461.147 4246.72 548.168 4246.72 664.825C4246.72 783.813 4177.85 866.638 4065.79 866.638ZM4761.04 965.793C4902.28 965.793 4997.99 896.969 5026 774.479H4923.3C4904.63 839.805 4848.57 874.801 4763.35 874.801C4654.8 874.801 4591.79 808.311 4583.61 688.156L5024.85 686.989V659.446C5024.85 490.294 4918.61 378.305 4756.35 378.305C4590.6 378.305 4477.37 488.674 4477.37 667.156C4477.37 844.475 4592.95 965.793 4761.04 965.793ZM4756.35 470.462C4853.25 470.462 4915.11 533.458 4915.11 627.948H4585.95C4599.94 527.625 4660.64 470.462 4756.35 470.462Z" stroke="black"/>
<path d="M1324.95 362.936V455.092H1409V964.531H1518.72V455.092H1654.12V362.936H1518.72V303.093C1518.72 241.265 1537.39 205.102 1608.6 205.102H1657.62V110.611C1635.45 107.111 1610.93 105.945 1589.92 105.945C1486.04 105.945 1409 163.106 1409 303.093V362.936H1324.95Z" stroke="black"/>
<path d="M2163.25 254.388C2163.25 284.252 2138.64 308.846 2108.75 308.846C2078.87 308.846 2054.26 284.252 2054.26 254.388C2054.26 223.645 2078.87 199.93 2108.75 199.93C2138.64 199.93 2163.25 223.645 2163.25 254.388Z" fill="black"/>
<path d="M3654.42 254.388C3654.42 284.252 3629.81 308.846 3599.92 308.846C3570.04 308.846 3545.43 284.252 3545.43 254.388C3545.43 223.645 3570.04 199.93 3599.92 199.93C3629.81 199.93 3654.42 223.645 3654.42 254.388Z" fill="black"/>
</svg>
