<?xml version="1.0" encoding="UTF-8"?><svg id="Layer_1" xmlns="http://www.w3.org/2000/svg" viewBox="0 0 24 19.5"><defs><style>.cls-1{fill:#a1a1aa;}</style></defs><path class="cls-1" d="M24,2.31c-.88,.39-1.83,.66-2.83,.78,1.02-.61,1.8-1.57,2.17-2.72-.95,.56-2.01,.97-3.13,1.2-.9-.96-2.18-1.55-3.59-1.55-3.18,0-5.51,2.97-4.8,6.05C7.73,5.84,4.1,3.88,1.67,.9,.38,3.11,1,6.01,3.19,7.48c-.81-.03-1.57-.25-2.23-.62-.05,2.28,1.58,4.41,3.95,4.89-.69,.19-1.45,.23-2.22,.08,.63,1.96,2.44,3.38,4.6,3.42-2.07,1.62-4.68,2.35-7.29,2.04,2.18,1.4,4.77,2.21,7.55,2.21,9.14,0,14.31-7.72,13.99-14.65,.96-.7,1.8-1.56,2.46-2.55Z"/></svg>